<svg id="Layer_1" data-name="Layer 1" xmlns="http://www.w3.org/2000/svg" viewBox="0 0 1280 550.47"><defs><style>.cls-1{fill:#fff;}</style></defs><path class="cls-1" d="M750.6,169.17c-7.53-16-18.1-28.8-31.58-38.32s-29.6-14.27-48.09-14.27a80.37,80.37,0,0,0-33,6.74,86.55,86.55,0,0,0-27.74,20.35v-18a5.3,5.3,0,0,0-5.29-5.28H558.49a7.86,7.86,0,0,0-7.93,7.92V392.73a5.21,5.21,0,0,0,5.28,5.29h54.31a5.3,5.3,0,0,0,5.28-5.29V305.79a89.23,89.23,0,0,0,25.77,17,74.17,74.17,0,0,0,29.73,5.81c18.49,0,34.48-4.76,48.09-14.27s24.05-22.33,31.58-38.18,11.49-33.83,11.49-53.52S758.26,185.29,750.6,169.17Zm-68.31,89.32c-8.19,7.8-17,11.63-26.95,11.63a37.23,37.23,0,0,1-18.9-5c-5.94-3.17-10.83-8.46-14.53-15.33s-5.68-16-5.68-26.82,1.71-19.82,5.41-26.82,8.59-12.16,14.67-15.73a38.52,38.52,0,0,1,19-5.41c9.91,0,18.76,4.09,26.95,11.89s12.16,19.68,12.16,35.8S690.35,250.69,682.29,258.49Z"/><path class="cls-1" d="M851.41,120.42H797a5.3,5.3,0,0,0-5.29,5.28V319.53a5.3,5.3,0,0,0,5.29,5.29h54.43a5.3,5.3,0,0,0,5.29-5.29V125.7A5.3,5.3,0,0,0,851.41,120.42Z"/><path class="cls-1" d="M1191,52h-55.09a5.3,5.3,0,0,0-5.29,5.29V319.53a5.3,5.3,0,0,0,5.29,5.29H1191a5.22,5.22,0,0,0,5.29-5.29V57.26A5.22,5.22,0,0,0,1191,52Z"/><path class="cls-1" d="M1093.87,316.49l-64.48-93.15-32.24-46.51-37.66-54.17a5.31,5.31,0,0,0-4.35-2.24H897.66a5.25,5.25,0,0,0-4.36,8.19l61.44,88.92a5.18,5.18,0,0,1,.13,5.81l-60.12,93.29a5.29,5.29,0,0,0,4.36,8.19h55a5.33,5.33,0,0,0,4.62-2.64l27.35-47a5.26,5.26,0,0,1,8.86-.27l32.9,47.57a5.28,5.28,0,0,0,4.36,2.38h57.34A5.28,5.28,0,0,0,1093.87,316.49Z"/><rect class="cls-1" x="1019.29" y="120.34" width="62.64" height="62.64" rx="5.29"/><rect class="cls-1" x="1217.36" y="263.59" width="62.64" height="62.64" rx="5.29"/><path class="cls-1" d="M440.53,51.06h-35.6a7.85,7.85,0,0,1-7.83-7.83V7.83A7.72,7.72,0,0,0,389.28,0H58.88a7.85,7.85,0,0,0-7.82,7.83v35.4a7.73,7.73,0,0,1-7.83,7.83H7.83A7.85,7.85,0,0,0,0,58.88V542.64a7.85,7.85,0,0,0,7.83,7.83H99.37l5.68-5.48,52.81-51.05,46.37-43.43a7.53,7.53,0,0,1,5.28-2.15l168-.2H397.1V404.93a7.86,7.86,0,0,1,7.83-7.83h35.6a7.73,7.73,0,0,0,7.83-7.82V58.88A7.73,7.73,0,0,0,440.53,51.06ZM358,350.16a7.72,7.72,0,0,1-7.82,7.82H306.92v.2H165.1l-5.67,5.67-51.25,51.06-17.8,17.6V98.2a7.84,7.84,0,0,1,7.82-7.82h252A7.72,7.72,0,0,1,358,98.2Z"/><rect class="cls-1" x="177.9" y="174.07" width="92.74" height="92.74" rx="7.83"/></svg>